<?xml version="1.0" encoding="UTF-8" standalone="no"?>
<!DOCTYPE svg PUBLIC "-//W3C//DTD SVG 1.1//EN"
 "http://www.w3.org/Graphics/SVG/1.1/DTD/svg11.dtd">
<!-- Generated by graphviz version 2.40.1 (20161225.0304)
 -->
<!-- Title: nodes Pages: 1 -->
<svg width="854pt" height="494pt"
 viewBox="0.00 0.00 853.88 493.60" xmlns="http://www.w3.org/2000/svg" xmlns:xlink="http://www.w3.org/1999/xlink">
<g id="graph0" class="graph" transform="scale(1 1) rotate(0) translate(4 489.6)">
<title>nodes</title>
<polygon fill="#ffffff" stroke="transparent" points="-4,4 -4,-489.6 849.8764,-489.6 849.8764,4 -4,4"/>
<!-- 0 -->
<g id="node1" class="node">
<title>0</title>
<polygon fill="none" stroke="#000000" points="667.9884,-485.6 544.888,-485.6 544.888,-449.6 667.9884,-449.6 667.9884,-485.6"/>
<text text-anchor="middle" x="606.4382" y="-463.4" font-family="Times,serif" font-size="14.00" fill="#000000"> nlchild_base &lt;= 3 </text>
</g>
<!-- 1 -->
<g id="node2" class="node">
<title>1</title>
<polygon fill="none" stroke="#000000" points="600.9876,-413.6 459.8888,-413.6 459.8888,-377.6 600.9876,-377.6 600.9876,-413.6"/>
<text text-anchor="middle" x="530.4382" y="-391.4" font-family="Times,serif" font-size="14.00" fill="#000000"> DFLNH_pct &lt;= 0.17 </text>
</g>
<!-- 0&#45;&gt;1 -->
<g id="edge1" class="edge">
<title>0&#45;&gt;1</title>
<path fill="none" stroke="#000000" d="M587.2602,-449.4314C578.0794,-440.7337 566.9376,-430.1783 556.9606,-420.7265"/>
<polygon fill="#000000" stroke="#000000" points="559.2767,-418.0995 549.6101,-413.7628 554.4625,-423.1811 559.2767,-418.0995"/>
<text text-anchor="middle" x="550.2855" y="-434.5537" font-family="Times,serif" font-size="14.00" fill="#000000">True</text>
</g>
<!-- 2 -->
<g id="node3" class="node">
<title>2</title>
<polygon fill="none" stroke="#000000" points="748.215,-413.6 618.6614,-413.6 618.6614,-377.6 748.215,-377.6 748.215,-413.6"/>
<text text-anchor="middle" x="683.4382" y="-391.4" font-family="Times,serif" font-size="14.00" fill="#000000"> bfinittm_base &lt;= 1 </text>
</g>
<!-- 0&#45;&gt;2 -->
<g id="edge2" class="edge">
<title>0&#45;&gt;2</title>
<path fill="none" stroke="#000000" d="M625.8686,-449.4314C635.1702,-440.7337 646.4586,-430.1783 656.5668,-420.7265"/>
<polygon fill="#000000" stroke="#000000" points="659.1003,-423.1493 664.0141,-413.7628 654.3193,-418.0363 659.1003,-423.1493"/>
<text text-anchor="middle" x="663.1756" y="-434.5488" font-family="Times,serif" font-size="14.00" fill="#000000">False</text>
</g>
<!-- 3 -->
<g id="node4" class="node">
<title>3</title>
<polygon fill="none" stroke="#000000" points="416.2745,-330.4 288.6019,-330.4 288.6019,-294.4 416.2745,-294.4 416.2745,-330.4"/>
<text text-anchor="middle" x="352.4382" y="-308.2" font-family="Times,serif" font-size="14.00" fill="#000000"> X3FL_pct &lt;= 0.54 </text>
</g>
<!-- 1&#45;&gt;3 -->
<g id="edge3" class="edge">
<title>1&#45;&gt;3</title>
<path fill="none" stroke="#000000" d="M491.8149,-377.5468C464.9906,-365.0088 429.0629,-348.2156 400.4032,-334.8196"/>
<polygon fill="#000000" stroke="#000000" points="401.5275,-331.4817 390.9862,-330.4179 398.5633,-337.8231 401.5275,-331.4817"/>
</g>
<!-- 4 -->
<g id="node5" class="node">
<title>4</title>
<polygon fill="none" stroke="#000000" points="601.5831,-330.4 471.2933,-330.4 471.2933,-294.4 601.5831,-294.4 601.5831,-330.4"/>
<text text-anchor="middle" x="536.4382" y="-308.2" font-family="Times,serif" font-size="14.00" fill="#000000"> whz_base &lt;= &#45;0.74 </text>
</g>
<!-- 1&#45;&gt;4 -->
<g id="edge4" class="edge">
<title>1&#45;&gt;4</title>
<path fill="none" stroke="#000000" d="M531.7401,-377.5468C532.5185,-366.7532 533.5243,-352.8061 534.4054,-340.5876"/>
<polygon fill="#000000" stroke="#000000" points="537.9104,-340.6438 535.1388,-330.4179 530.9285,-340.1402 537.9104,-340.6438"/>
</g>
<!-- 5 -->
<g id="node18" class="node">
<title>5</title>
<polygon fill="#c1b2ff" stroke="#c1b2ff" points="726.6542,-341.8014 630.2222,-341.8014 630.2222,-282.9986 726.6542,-282.9986 726.6542,-341.8014"/>
<text text-anchor="middle" x="678.4382" y="-325" font-family="Times,serif" font-size="14.00" fill="#000000">size = &#160;1 </text>
<text text-anchor="middle" x="678.4382" y="-308.2" font-family="Times,serif" font-size="14.00" fill="#000000"> avg_Y = 0.23</text>
<text text-anchor="middle" x="678.4382" y="-291.4" font-family="Times,serif" font-size="14.00" fill="#000000">avg_W = 0 </text>
</g>
<!-- 2&#45;&gt;5 -->
<g id="edge17" class="edge">
<title>2&#45;&gt;5</title>
<path fill="none" stroke="#000000" d="M682.3533,-377.5468C681.8984,-369.9769 681.3502,-360.856 680.8101,-351.8681"/>
<polygon fill="#000000" stroke="#000000" points="684.3027,-351.6388 680.209,-341.8668 677.3153,-352.0587 684.3027,-351.6388"/>
</g>
<!-- 6 -->
<g id="node19" class="node">
<title>6</title>
<polygon fill="#c1b2ff" stroke="#c1b2ff" points="845.8147,-341.8014 745.0617,-341.8014 745.0617,-282.9986 845.8147,-282.9986 845.8147,-341.8014"/>
<text text-anchor="middle" x="795.4382" y="-325" font-family="Times,serif" font-size="14.00" fill="#000000">size = &#160;5 </text>
<text text-anchor="middle" x="795.4382" y="-308.2" font-family="Times,serif" font-size="14.00" fill="#000000"> avg_Y = &#45;0.82</text>
<text text-anchor="middle" x="795.4382" y="-291.4" font-family="Times,serif" font-size="14.00" fill="#000000">avg_W = 0.8 </text>
</g>
<!-- 2&#45;&gt;6 -->
<g id="edge18" class="edge">
<title>2&#45;&gt;6</title>
<path fill="none" stroke="#000000" d="M707.7405,-377.5468C719.3552,-368.9188 733.6824,-358.2757 747.3652,-348.1114"/>
<polygon fill="#000000" stroke="#000000" points="749.8311,-350.6397 755.7714,-341.8668 745.6568,-345.0204 749.8311,-350.6397"/>
</g>
<!-- 7 -->
<g id="node6" class="node">
<title>7</title>
<polygon fill="none" stroke="#000000" points="239.9876,-236 98.8888,-236 98.8888,-200 239.9876,-200 239.9876,-236"/>
<text text-anchor="middle" x="169.4382" y="-213.8" font-family="Times,serif" font-size="14.00" fill="#000000"> DSLNH_pct &lt;= 0.62 </text>
</g>
<!-- 3&#45;&gt;7 -->
<g id="edge5" class="edge">
<title>3&#45;&gt;7</title>
<path fill="none" stroke="#000000" d="M317.154,-294.1987C287.6602,-278.9845 245.4436,-257.2071 213.6895,-240.8269"/>
<polygon fill="#000000" stroke="#000000" points="215.1059,-237.6194 204.6141,-236.1454 211.8968,-243.8404 215.1059,-237.6194"/>
</g>
<!-- 8 -->
<g id="node7" class="node">
<title>8</title>
<polygon fill="none" stroke="#000000" points="426.7703,-236 278.1061,-236 278.1061,-200 426.7703,-200 426.7703,-236"/>
<text text-anchor="middle" x="352.4382" y="-213.8" font-family="Times,serif" font-size="14.00" fill="#000000"> FDSLNH_pct &lt;= 0.78 </text>
</g>
<!-- 3&#45;&gt;8 -->
<g id="edge6" class="edge">
<title>3&#45;&gt;8</title>
<path fill="none" stroke="#000000" d="M352.4382,-294.1987C352.4382,-280.6169 352.4382,-261.8048 352.4382,-246.2711"/>
<polygon fill="#000000" stroke="#000000" points="355.9383,-246.1454 352.4382,-236.1454 348.9383,-246.1454 355.9383,-246.1454"/>
</g>
<!-- 9 -->
<g id="node12" class="node">
<title>9</title>
<polygon fill="none" stroke="#000000" points="609.5402,-236 463.3362,-236 463.3362,-200 609.5402,-200 609.5402,-236"/>
<text text-anchor="middle" x="536.4382" y="-213.8" font-family="Times,serif" font-size="14.00" fill="#000000"> birthwt_base &lt;= 2585 </text>
</g>
<!-- 4&#45;&gt;9 -->
<g id="edge11" class="edge">
<title>4&#45;&gt;9</title>
<path fill="none" stroke="#000000" d="M536.4382,-294.1987C536.4382,-280.6169 536.4382,-261.8048 536.4382,-246.2711"/>
<polygon fill="#000000" stroke="#000000" points="539.9383,-246.1454 536.4382,-236.1454 532.9383,-246.1454 539.9383,-246.1454"/>
</g>
<!-- 10 -->
<g id="node13" class="node">
<title>10</title>
<polygon fill="#c1b2ff" stroke="#c1b2ff" points="727.8147,-247.4014 627.0617,-247.4014 627.0617,-188.5986 727.8147,-188.5986 727.8147,-247.4014"/>
<text text-anchor="middle" x="677.4382" y="-230.6" font-family="Times,serif" font-size="14.00" fill="#000000">size = &#160;6 </text>
<text text-anchor="middle" x="677.4382" y="-213.8" font-family="Times,serif" font-size="14.00" fill="#000000"> avg_Y = &#45;0.27</text>
<text text-anchor="middle" x="677.4382" y="-197" font-family="Times,serif" font-size="14.00" fill="#000000">avg_W = 0.33 </text>
</g>
<!-- 4&#45;&gt;10 -->
<g id="edge12" class="edge">
<title>4&#45;&gt;10</title>
<path fill="none" stroke="#000000" d="M563.6244,-294.1987C581.0674,-282.5206 604.2861,-266.9756 625.2015,-252.9727"/>
<polygon fill="#000000" stroke="#000000" points="627.3318,-255.7585 633.6942,-247.2868 623.4374,-249.9417 627.3318,-255.7585"/>
</g>
<!-- 11 -->
<g id="node8" class="node">
<title>11</title>
<polygon fill="#c1b2ff" stroke="#c1b2ff" points="100.8147,-153.0014 .0617,-153.0014 .0617,-94.1986 100.8147,-94.1986 100.8147,-153.0014"/>
<text text-anchor="middle" x="50.4382" y="-136.2" font-family="Times,serif" font-size="14.00" fill="#000000">size = &#160;2 </text>
<text text-anchor="middle" x="50.4382" y="-119.4" font-family="Times,serif" font-size="14.00" fill="#000000"> avg_Y = &#45;1.02</text>
<text text-anchor="middle" x="50.4382" y="-102.6" font-family="Times,serif" font-size="14.00" fill="#000000">avg_W = 0.5 </text>
</g>
<!-- 7&#45;&gt;11 -->
<g id="edge7" class="edge">
<title>7&#45;&gt;11</title>
<path fill="none" stroke="#000000" d="M146.4938,-199.7987C131.9687,-188.2763 112.6982,-172.9894 95.2316,-159.1336"/>
<polygon fill="#000000" stroke="#000000" points="97.3664,-156.3596 87.3569,-152.8868 93.016,-161.8436 97.3664,-156.3596"/>
</g>
<!-- 12 -->
<g id="node9" class="node">
<title>12</title>
<polygon fill="#c1b2ff" stroke="#c1b2ff" points="219.8147,-153.0014 119.0617,-153.0014 119.0617,-94.1986 219.8147,-94.1986 219.8147,-153.0014"/>
<text text-anchor="middle" x="169.4382" y="-136.2" font-family="Times,serif" font-size="14.00" fill="#000000">size = &#160;1 </text>
<text text-anchor="middle" x="169.4382" y="-119.4" font-family="Times,serif" font-size="14.00" fill="#000000"> avg_Y = &#45;0.23</text>
<text text-anchor="middle" x="169.4382" y="-102.6" font-family="Times,serif" font-size="14.00" fill="#000000">avg_W = 0 </text>
</g>
<!-- 7&#45;&gt;12 -->
<g id="edge8" class="edge">
<title>7&#45;&gt;12</title>
<path fill="none" stroke="#000000" d="M169.4382,-199.7987C169.4382,-189.3143 169.4382,-175.7133 169.4382,-162.9095"/>
<polygon fill="#000000" stroke="#000000" points="172.9383,-162.8867 169.4382,-152.8868 165.9383,-162.8868 172.9383,-162.8867"/>
</g>
<!-- 13 -->
<g id="node10" class="node">
<title>13</title>
<polygon fill="#c1b2ff" stroke="#c1b2ff" points="334.6542,-153.0014 238.2222,-153.0014 238.2222,-94.1986 334.6542,-94.1986 334.6542,-153.0014"/>
<text text-anchor="middle" x="286.4382" y="-136.2" font-family="Times,serif" font-size="14.00" fill="#000000">size = &#160;2 </text>
<text text-anchor="middle" x="286.4382" y="-119.4" font-family="Times,serif" font-size="14.00" fill="#000000"> avg_Y = 0.01</text>
<text text-anchor="middle" x="286.4382" y="-102.6" font-family="Times,serif" font-size="14.00" fill="#000000">avg_W = 0.5 </text>
</g>
<!-- 8&#45;&gt;13 -->
<g id="edge9" class="edge">
<title>8&#45;&gt;13</title>
<path fill="none" stroke="#000000" d="M339.7127,-199.7987C332.0922,-188.8991 322.1167,-174.6311 312.8607,-161.3922"/>
<polygon fill="#000000" stroke="#000000" points="315.5126,-159.0769 306.9141,-152.8868 309.7757,-163.0879 315.5126,-159.0769"/>
</g>
<!-- 14 -->
<g id="node11" class="node">
<title>14</title>
<polygon fill="#c1b2ff" stroke="#c1b2ff" points="453.8147,-153.0014 353.0617,-153.0014 353.0617,-94.1986 453.8147,-94.1986 453.8147,-153.0014"/>
<text text-anchor="middle" x="403.4382" y="-136.2" font-family="Times,serif" font-size="14.00" fill="#000000">size = &#160;1 </text>
<text text-anchor="middle" x="403.4382" y="-119.4" font-family="Times,serif" font-size="14.00" fill="#000000"> avg_Y = &#45;0.99</text>
<text text-anchor="middle" x="403.4382" y="-102.6" font-family="Times,serif" font-size="14.00" fill="#000000">avg_W = 1 </text>
</g>
<!-- 8&#45;&gt;14 -->
<g id="edge10" class="edge">
<title>8&#45;&gt;14</title>
<path fill="none" stroke="#000000" d="M362.2715,-199.7987C368.104,-189.0029 375.7218,-174.9025 382.8163,-161.7707"/>
<polygon fill="#000000" stroke="#000000" points="385.942,-163.3485 387.6159,-152.8868 379.7833,-160.0212 385.942,-163.3485"/>
</g>
<!-- 15 -->
<g id="node14" class="node">
<title>15</title>
<polygon fill="none" stroke="#000000" points="600.545,-141.6 472.3314,-141.6 472.3314,-105.6 600.545,-105.6 600.545,-141.6"/>
<text text-anchor="middle" x="536.4382" y="-119.4" font-family="Times,serif" font-size="14.00" fill="#000000"> LNT_pct &lt;= 15.96 </text>
</g>
<!-- 9&#45;&gt;15 -->
<g id="edge13" class="edge">
<title>9&#45;&gt;15</title>
<path fill="none" stroke="#000000" d="M536.4382,-199.7987C536.4382,-186.2169 536.4382,-167.4048 536.4382,-151.8711"/>
<polygon fill="#000000" stroke="#000000" points="539.9383,-151.7454 536.4382,-141.7454 532.9383,-151.7454 539.9383,-151.7454"/>
</g>
<!-- 16 -->
<g id="node15" class="node">
<title>16</title>
<polygon fill="#c1b2ff" stroke="#c1b2ff" points="719.8147,-153.0014 619.0617,-153.0014 619.0617,-94.1986 719.8147,-94.1986 719.8147,-153.0014"/>
<text text-anchor="middle" x="669.4382" y="-136.2" font-family="Times,serif" font-size="14.00" fill="#000000">size = &#160;4 </text>
<text text-anchor="middle" x="669.4382" y="-119.4" font-family="Times,serif" font-size="14.00" fill="#000000"> avg_Y = &#45;0.83</text>
<text text-anchor="middle" x="669.4382" y="-102.6" font-family="Times,serif" font-size="14.00" fill="#000000">avg_W = 0.5 </text>
</g>
<!-- 9&#45;&gt;16 -->
<g id="edge14" class="edge">
<title>9&#45;&gt;16</title>
<path fill="none" stroke="#000000" d="M562.0819,-199.7987C578.4622,-188.1725 600.242,-172.7137 619.9021,-158.7595"/>
<polygon fill="#000000" stroke="#000000" points="622.0472,-161.5289 628.1761,-152.8868 617.9956,-155.8206 622.0472,-161.5289"/>
</g>
<!-- 17 -->
<g id="node16" class="node">
<title>17</title>
<polygon fill="#c1b2ff" stroke="#c1b2ff" points="526.8147,-58.6014 426.0617,-58.6014 426.0617,.2014 526.8147,.2014 526.8147,-58.6014"/>
<text text-anchor="middle" x="476.4382" y="-41.8" font-family="Times,serif" font-size="14.00" fill="#000000">size = &#160;1 </text>
<text text-anchor="middle" x="476.4382" y="-25" font-family="Times,serif" font-size="14.00" fill="#000000"> avg_Y = &#45;0.66</text>
<text text-anchor="middle" x="476.4382" y="-8.2" font-family="Times,serif" font-size="14.00" fill="#000000">avg_W = 1 </text>
</g>
<!-- 15&#45;&gt;17 -->
<g id="edge15" class="edge">
<title>15&#45;&gt;17</title>
<path fill="none" stroke="#000000" d="M524.8696,-105.3987C517.9419,-94.4991 508.8732,-80.2311 500.4587,-66.9922"/>
<polygon fill="#000000" stroke="#000000" points="503.3707,-65.0489 495.0527,-58.4868 497.463,-68.8038 503.3707,-65.0489"/>
</g>
<!-- 18 -->
<g id="node17" class="node">
<title>18</title>
<polygon fill="#c1b2ff" stroke="#c1b2ff" points="645.8147,-58.6014 545.0617,-58.6014 545.0617,.2014 645.8147,.2014 645.8147,-58.6014"/>
<text text-anchor="middle" x="595.4382" y="-41.8" font-family="Times,serif" font-size="14.00" fill="#000000">size = &#160;1 </text>
<text text-anchor="middle" x="595.4382" y="-25" font-family="Times,serif" font-size="14.00" fill="#000000"> avg_Y = &#45;1.95</text>
<text text-anchor="middle" x="595.4382" y="-8.2" font-family="Times,serif" font-size="14.00" fill="#000000">avg_W = 0 </text>
</g>
<!-- 15&#45;&gt;18 -->
<g id="edge16" class="edge">
<title>15&#45;&gt;18</title>
<path fill="none" stroke="#000000" d="M547.814,-105.3987C554.6263,-94.4991 563.5438,-80.2311 571.8181,-66.9922"/>
<polygon fill="#000000" stroke="#000000" points="574.8019,-68.8218 577.134,-58.4868 568.8659,-65.1117 574.8019,-68.8218"/>
</g>
</g>
</svg>
